/* XPM */
static char *_3267666775247ccaf8c029d00af0b27[] = {
/* columns rows colors chars-per-pixel */
"64 64 113 2 ",
"   c #000000",
".  c #0C0403",
"X  c #0C0A04",
"o  c #010408",
"O  c #09050C",
"+  c #0C0C0B",
"@  c #130302",
"#  c #180503",
"$  c #130A06",
"%  c #130D09",
"&  c #1A0E0A",
"*  c #0F1207",
"=  c #0E120A",
"-  c #0F190C",
";  c #171105",
":  c #12140D",
">  c #1A130C",
",  c #13190E",
"<  c #0D1211",
"1  c #131413",
"2  c #1C1614",
"3  c #161A11",
"4  c #1A1B14",
"5  c #14161A",
"6  c #16181A",
"7  c #1A1B1B",
"8  c #200602",
"9  c #200A05",
"0  c #200F0F",
"q  c #2C0B09",
"w  c #24170F",
"e  c #2C1708",
"r  c #241715",
"t  c #251A11",
"y  c #281815",
"u  c #271D18",
"i  c #291D1B",
"p  c #321C10",
"a  c #1B2015",
"s  c #1A201C",
"d  c #23211A",
"f  c #31281F",
"g  c #3F2F1F",
"h  c #1C1E21",
"j  c #1C2023",
"k  c #232323",
"l  c #242629",
"z  c #25292C",
"x  c #2B2B2B",
"c  c #322F2C",
"v  c #2E2F33",
"b  c #343434",
"n  c #3E3232",
"m  c #3C3C3C",
"M  c #451C17",
"N  c #481A14",
"B  c #40231D",
"V  c #40331E",
"C  c #58381E",
"Z  c #442B22",
"A  c #4B3425",
"S  c #47342B",
"D  c #4F3229",
"F  c #4D3B2A",
"G  c #553523",
"H  c #5F3025",
"J  c #473D3D",
"K  c #4D403B",
"L  c #604632",
"P  c #714532",
"I  c #434343",
"U  c #4C4B4B",
"Y  c #545454",
"T  c #5C5C5C",
"R  c #755341",
"E  c #795646",
"W  c #5F6064",
"Q  c #636363",
"!  c #6D6765",
"~  c #6A6A67",
"^  c #6A6A6A",
"/  c #706A65",
"(  c #737373",
")  c #7C7C7C",
"_  c #8E4D31",
"`  c #834D39",
"'  c #9F6037",
"]  c #90694F",
"[  c #967055",
"{  c #99725C",
"}  c #A8764D",
"|  c #A97951",
" . c #A87858",
".. c #917D6C",
"X. c #848484",
"o. c #8B8B8B",
"O. c #949494",
"+. c #9C9C9C",
"@. c #969BA0",
"#. c #A4A4A4",
"$. c #ACACAB",
"%. c #B4AFAE",
"&. c #B4B4B4",
"*. c #BCBCBC",
"=. c #DEC8B9",
"-. c #C4C4C4",
";. c #CACACA",
":. c #D4D4D4",
">. c #DCDCDC",
",. c #E3E3E3",
"<. c #ECECEC",
"1. c #F4F4F4",
"2. c #FFFFFF",
/* pixels */
"2.2.2.2.2.2.2.2.2.2.2.2.2.2.2.2.2.2.2.2.2.2.2.2.2.2.2.2.2.2.2.2.2.2.2.2.2.2.2.2.2.2.2.2.2.2.2.2.2.2.2.2.2.2.2.2.2.2.2.2.2.2.2.2.",
"2.2.2.2.2.2.2.2.2.2.2.2.2.2.2.2.2.2.2.2.2.2.2.2.*.1                         o.2.2.2.2.2.2.2.2.2.2.2.2.2.2.2.2.2.2.2.2.2.2.2.2.2.",
"2.2.2.2.2.2.2.2.2.2.2.2.2.2.2.2.2.2.2.2.2.Y             O.:.,.U <.:.+.1           1 2.2.2.2.2.2.2.2.2.2.2.2.2.2.2.2.2.2.2.2.2.2.",
"2.2.2.2.2.2.2.2.2.2.2.2.2.2.2.2.2.2.2.        ( 2.k 2.2.2.2.1.2.;.  ,.2.2.2.2.>.        >.2.2.2.2.2.2.2.2.2.2.2.2.2.2.2.2.2.2.2.",
"2.2.2.2.2.2.2.2.2.2.2.2.2.2.2.2.2.      = 2.2.U c     2.2.2.2.2.v   ,.2.2.2.;.U 2.2.$.      1.2.2.2.2.2.2.2.2.2.2.2.2.2.2.2.2.2.",
"2.2.2.2.2.2.2.2.2.2.2.2.2.2.2.7     I 2.2.2.2.2.2.k   2.2.  I 1.1.  >.2.  2.2.O.+.  2.2.>.      2.2.2.2.2.2.2.2.2.2.2.2.2.2.2.2.",
"2.2.2.2.2.2.2.2.2.2.2.2.2.1.    1 2.2.X.2.2.2.2.1.2.1.  2.    2.2.+ >.>.  m 2.*.    2.2.2.2.+.    o.2.2.2.2.2.2.2.2.2.2.2.2.2.2.",
"2.2.2.2.2.2.2.2.2.2.2.2.$.    1.2.2.1.1   2.o 1.T 2.2.  o.    1 2.  ,.    + 2.2.  <.2.2.2.2.2.2.    + 2.2.2.2.2.2.2.2.2.2.2.2.2.",
"2.2.2.2.2.2.2.2.2.2.2.c     2.2.2.I (     Q Y     + Y 2.2.2.2.2.2.2.2.&.    2.1.  2.x *.2.1.O 2.2.m     2.2.2.2.2.2.2.2.2.2.2.2.",
"2.2.2.2.2.2.2.2.2.2.      2.2.2.2.2.2.l 2.  2.    2.2.2.2.2.2.1.2.1.2.2.2.2.x   X.2.  1.2.2.  ~   2.,.    2.2.2.2.2.2.2.2.2.2.2.",
"2.2.2.2.2.2.2.2.2.    U 2.~ 2.2.2.2.,.2.2.^   2.2.-.                        <.2.2.      2.k +   2.2.2.2.    2.2.2.2.2.2.2.2.2.2.",
"2.2.2.2.2.2.2.2.Y   U 2.2.Q   2.1.  X o 2.c 2.          ) 2.2.2.2.2.;.I         U 2.    2.2.  +.1.2.2.2.2.    2.2.2.2.2.2.2.2.2.",
"2.2.2.2.2.2.2.,.  + 2.m >.o     2.      1       k 2.2.1.2.2.2.2.2.2.2.2.2.2.>.      U T 2.1   ;.T 2.1.T 2.;.  7 2.2.2.2.2.2.2.2.",
"2.2.2.2.2.2.2.    2.2.2.1.2.1.+.  2.  b     T 2.2.2.2.2.2.2.2.2.2.2.2.2.2.2.2.2.2.      Y   2.  T 2.2.  #.2.v   -.2.2.2.2.2.2.2.",
"2.2.2.2.2.2.    2.2.2.2.2.2.2.2.  U       2.2.2.2.2.2.2.2.2.2.2.2.2.2.2.2.2.2.2.2.2.1.    )     + 2.Y +   2.2.    2.2.2.2.2.2.2.",
"2.2.2.2.2.*.  ;.2.2.2.6 c   o 2.2.    *.2.2.2.2.2.2.2.2.2.2.2.2.2.2.2.2.2.2.2.2.2.2.2.2.o   + o 1 2.2.  *.2.2.2.    2.2.2.2.2.2.",
"2.2.2.2.2.    2.1   2.2.      >.    1.2.2.2.2.2.2.2.2.2.2.2.2.2.2.2.2.2.2.2.2.2.2.2.2.2.2.k   1 1 1.  k 2.1.2.2.(   <.2.2.2.2.2.",
"2.2.2.2.v   2.1.&.    T 2.  2.    2.2.2.2.2.2.2.2.2.2.2.2.2.2.2.2.2.2.2.2.2.2.2.2.2.2.2.2.2.I   ~ +   -.  2.2.&.2.    2.2.2.2.2.",
"2.2.2.2.  o 2.-.-.x 2.    2.+   <.2.2.2.2.2.2.2.2.2.2.  &.2.2.2.2.2.2.>.2.2.2.2.2.2.2.2.2.2.2.    1.o   7 ( 2.1.*.>.  ,.2.2.2.2.",
"2.2.2.T   2.2.<.2.$.2.2.  -.  Q 2.2.2.2.2.2.2.2.2.2.2.  >.2.1.m 2.2.o >.2.o 2.2.2.2.2.2.2.2.2.2.    2.    2.Y 1 ( 2.    2.2.2.2.",
"2.2.2.    2.2.2.2.*.+.2.2.    2.2.2.2.2.2.2.2.2.2.2.2.  2.2.2.<.;.2.7 >.2.  2.2.2.2.2.2.2.2.2.2.2.  + + 2.2.1.    7 +.  2.2.2.2.",
"2.2.,.  ,.2.2.Y   +   o o   2.2.2.2.2.2.2.2.2.2.2.2.2.2.2.2.2.2.2.2.2.2.2.2.2.2.2.2.2.2.2.2.2.2.2.7   2.) >.    2.2.2.    2.2.2.",
"2.2.    2.  o.2.)     2.  + 2.2.2.2.2.2.2.2.2.2.2.2.2.2.2.2.2.2.2.2.2.2.2.2.2.2.2.2.2.2.2.2.2.2.2.2.  + 2.  2.2.1.2.2.    2.2.2.",
"2.2.    2.+         ;.Q   2.2.2.2.2.2.2.2.2.2.2.2.2.2.2.2.2.2.2.~ > > 4 t g 2.2.2.2.2.2.2.2.2.2.2.2.+   2.2.    2.2.2.;.  2.2.2.",
"2.2.  :.+   v 2.2.  2.    2.2.2.2.2.2.2.2.2.2.2.2.2.2./ 4 V F E { ] [ } | t 2.2.2.2.2.2.2.2.2.2.2.2.2.  U     o 2.1.,.2.  I 2.2.",
"2.1.  2.U T ;.2.2.#.2.  1.2.2.2.2.2.2.2.2.+ C 2.2.=.A G R P ` _ '  .L ; 1 4 2.2.2.2.2.2.2.2.2.2.2.2.2.    2.  >.2.2.K 2.    2.2.",
"2.    2.2.2.:.v   c T   2.2.2.2.2.2.2.2.2.2.. ..2.>.X ; % $ X = . 4 3 3 3 1 %.2.2.2.2.2.2.2.2.2.2.2.2.X.  2.1.2.2.1   l o   2.2.",
"2.    2.2.1.      2.    2.2.2.2.2.2.2.2.2.2.z p 2.:.; 3 = , - - * , % + % 3 w 2.2.2.2.2.2.2.2.2.2.2.2.2.  2.+ o.+     2.~   2.2.",
"2.  1 2.2.2.O.    2.    2.2.2.2.2.2.2.2.2.2.2.O 2.,.+ = % = * = = 1 , , , 3 J 2.2.2.2.2.2.2.2.2.2.2.2.2.  7 2.  ( 2.2.2.2.  2.2.",
"2.  U 2.2.2.2.2.<.2.  ( 2.2.2.2.2.2.2.2.2.2.2.+ e 2., 3 3 3 , 3 - 3 > 1 3 4 u 2.2.2.2.2.2.2.2.2.2.2.2.2.    2.      <.2.2.  1.2.",
"2.  +.+         + 2.  :.2.2.2.2.2.2.2.2.2.2.2.2.o n 4 3 , , , - 4 , = = = U 2 2.2.2.2.2.2.2.2.2.2.2.2.2.    2.    1.2.2.2.  *.2.",
"2.  :.2.  ,.2.2.  2.  <.2.2.2.2.2.2.2.2.2.2.2.2.@.< 3 , + * = = , = * , : k y 2.2.2.2.2.2.2.2.2.2.2.2.2.    2.k 7 2.2.,.>.  X.2.",
"2.  2.$.-.Y 2.T   2.  2.2.2.2.2.2.2.2.2.2.2.2.2.2.O 3 , ; % = X % , = , , K q J 2.2.2.2.2.2.2.2.2.2.2.2.    2.2.2.2.2.  ,.  Q 2.",
"2.  ;.2.2.2.o     2.  <.2.2.2.2.2.2.2.2.2.2.2.2.2.,.4 , + O r A > % * 3 , c W f 2.2.2.2.2.2.2.2.2.2.2.2.    2.T 2.2.I k 2.  O.2.",
"2.  o.2.2.Q       2.  *.2.2.2.2.2.2.2.2.2.2.2.2.2.2.7 , & g D Z B S = , * 2 Y x 2.2.2.2.2.2.2.2.2.2.2.2.    2.          +   ;.2.",
"2.  I 2.2.,.>.,.o 2.  Y 2.2.2.2.2.2.2.2.2.2.2.2.2.2.7 = O + . X   + + : : , 3 d 2.2.2.2.2.2.2.2.2.2.2.2.    2.2.2.2.2.2.2.  2.2.",
"2.    2.2.:.      2.    2.2.2.2.2.2.2.2.2.2.2.2.2.2.7 , + 1 < O + 7 6 , , : - - $.2.2.2.2.2.2.2.2.2.2.2.  T 2.      &.2.2.  2.2.",
"2.    (     m 2.2.o     2.2.2.2.2.2.2.2.2.2.2.2.2.2.a + . l h h j h h : , = : - ,.2.2.2.2.2.2.2.2.2.2.2.  1.O.    2.2.2.b   2.2.",
"2.    2.2.  -.2.*.*.#.  2.2.2.2.2.2.2.2.2.2.2.2.2.2.4 , & h 7 l l h h = , = 3 ; 2.2.2.2.2.2.2.2.2.2.2.b   2.b o.2.2.2.2.    2.2.",
"2.1.  2.I 1.2.2.    #.  ( 2.2.2.2.2.2.2.2.2.2.2.2.2.u , + 6 z l v 5 1 = , = , 9 M 2.2.2.2.2.2.2.2.2.2.    2.T 2.2.2.O.1   o 2.2.",
"2.2.  O.2.-.2.2.1         2.2.2.2.2.2.2.2.2.2.2.2.! i 4 , + h 5 + 5 = = > 2 # . 8 H 2.2.2.2.2.2.2.2.2.  -.2.  o +.l U 2.  #.2.2.",
"2.2.    2.2.2.(   :.2.<.  2.2.2.2.2.2.2.2.2.2.2.2.0   @ , 1 h 1 h 5 < = 5 % . . @ 8 N 2.2.2.2.2.2.2.    2.2.2.2.      ~   2.2.2.",
"2.2.k   2.2.2.2.    T 2.    2.2.2.2.2.2.2.2.2.2.2.2.2.2.2.2.2.2.2.2.2.2.2.2.2.2.2.2.2.2.2.2.2.2.2.2.  I 2.    2.2.2.2.    2.2.2.",
"2.2.2.  #.2.    O.2.2.2.;.  >.2.2.2.2.2.2.2.2.2.2.2.2.2.2.2.2.2.2.2.2.2.2.2.2.2.2.2.2.2.2.2.2.2.2.    2.1   m   :.2.2.  Q 2.2.2.",
"2.2.2.    o   T <.2.+ 1 2.    2.2.2.2.2.2.2.2.2.2.2.2.2.2.2.2.2.2.2.2.2.2.2.2.2.2.2.2.2.2.2.2.2.:.  ) 2.1.*.;.2.2.2.7   2.2.2.2.",
"2.2.2.*.  2.2.X.1.1.    1.1.    2.2.2.2.2.2.2.2.2.2.2.2.2.2.2.2.2.%.2.2.2.2.2.2.2.2.2.2.2.2.2.2.    2.  2.2.X.2.) 2.    2.2.2.2.",
"2.2.2.2.      2.2.2.7   <.2.(   v 2.2.2.2.2.2.2.2.2.2.2.2.2.2.X.2.&.-.o.2.2.2.2.2.2.2.2.2.2.2.    2.2.    2.1 ( O.m   2.2.2.2.2.",
"2.2.2.2.-.  1.2.2.&.  2.2.b 2.+   #.2.2.2.2.2.2.2.2.2.#.2.2.1 2.+   6 2.O.2.2.2.2.2.2.2.2.2.    1.2.  2.Q     ^ 2.    2.2.2.2.2.",
"2.2.2.2.2.    2.2.2.2.2.  + c 2.    T 2.2.2.2.2.2.2.2.2.+.2.U 2.)   1 2.O.2.2.2.2.2.2.2.2.    #.2.o     2.2.b   1   2.2.2.2.2.2.",
"2.2.2.2.2.1.  m 2.2.2.  U 2.1.Y 2.+     2.2.2.2.2.2.2.2.2.2.2.2.2.2.2.2.2.2.2.2.2.2.2.2.    ,.:.1.o o o T 2.2.2.  l 2.2.2.2.2.2.",
"2.2.2.2.2.2.    1.2.c   m 2.&.o   o.T     2.2.2.2.2.2.2.2.2.2.2.2.2.2.2.2.2.2.2.2.2.b     2.<.  2.2.2.2.2.2.2.    2.2.2.2.2.2.2.",
"2.2.2.2.2.2.2.    2.    2.2.x 7   7   1.      2.2.2.2.2.2.2.2.2.2.2.2.2.2.2.2.2.$.      2.k 2.  <.2.1.2.2.2.    2.2.2.2.2.2.2.2.",
"2.2.2.2.2.2.2.2.    2.-.2.2.2.  2.  #.2.  X.      ( 2.2.2.2.2.2.2.2.2.2.2.2.        2.1.    7 2.o o + 2.&.o   #.2.2.2.2.2.2.2.2.",
"2.2.2.2.2.2.2.2.2.    2.T 2.2.>.  7 2.1.    X.o.            ) -.#.Q             2.2.o 2.      2.2.o ~ ,...  x 2.2.2.2.2.2.2.2.2.",
"2.2.2.2.2.2.2.2.2.#.    2.2.2.2.  k X.1.    ;.    2.O.                  x ,.2.O.2.  o 2.2.:.1.,.2.( *.T o   2.2.2.2.2.2.2.2.2.2.",
"2.2.2.2.2.2.2.2.2.2.&.    2.2.  +   2.2.-.  2.  2.2.1 Q 2.2.2.2.2.2.2.2.m #.+     2.  2.I 2.2.2.2.2.4   o 2.2.2.2.2.2.2.2.2.2.2.",
"2.2.2.2.2.2.2.2.2.2.2.<.    2.2.2.k <.2.1.2.  >.2.,.    2.  c 2.T       T 2.+ +   2.    x ;.O.2.2.o   v 2.2.2.2.2.2.2.2.2.2.2.2.",
"2.2.2.2.2.2.2.2.2.2.2.2.2.    I 2.2.2.2.2.2.  1 7 2.*.  2.  2.2.        T 2.2.( o 2.2.    *.2.1.    ,.2.2.2.2.2.2.2.2.2.2.2.2.2.",
"2.2.2.2.2.2.2.2.2.2.2.2.2.2.+     <.2.2.2.      1.2.I   2.  2.2.2.1.  ,.  U 2.2.2.2.2.2.+.2.      2.2.2.2.2.2.2.2.2.2.2.2.2.2.2.",
"2.2.2.2.2.2.2.2.2.2.2.2.2.2.2.1.      2.2.2.2.l >.2.2.2.2.  ~ 2.2.2.1 2.    m #.2.2.2.2.o     T 2.2.2.2.2.2.2.2.2.2.2.2.2.2.2.2.",
"2.2.2.2.2.2.2.2.2.2.2.2.2.2.2.2.2.O.      &.2.2.1.2.2.2.2.    1 1.2.2.2.  <.+.#.2.2.      + 2.2.2.2.2.2.2.2.2.2.2.2.2.2.2.2.2.2.",
"2.2.2.2.2.2.2.2.2.2.2.2.2.2.2.2.2.2.2.*.        T 2.2.2.2.7 2.  X.2.2.2.2.2.%.o       v 2.2.2.2.2.2.2.2.2.2.2.2.2.2.2.2.2.2.2.2.",
"2.2.2.2.2.2.2.2.2.2.2.2.2.2.2.2.2.2.2.2.2.2.7             O + 1 1 O               1.2.2.2.2.2.2.2.2.2.2.2.2.2.2.2.2.2.2.2.2.2.2.",
"2.2.2.2.2.2.2.2.2.2.2.2.2.2.2.2.2.2.2.2.2.2.2.2.2.2.7                   1 :.2.2.2.2.2.2.2.2.2.2.2.2.2.2.2.2.2.2.2.2.2.2.2.2.2.2."
};
