/* XPM */
static char *_d2604c7fda24f588abba96fefb33a33[] = {
/* columns rows colors chars-per-pixel */
"32 32 178 2 ",
"   c black",
".  c #010101",
"X  c #020202",
"o  c gray1",
"O  c #060101",
"+  c #010401",
"@  c #040404",
"#  c #060606",
"$  c #070707",
"%  c #0C0001",
"&  c #090705",
"*  c #0B0C07",
"=  c gray3",
"-  c #0A0909",
";  c gray4",
":  c #0B0B0B",
">  c #0A0C09",
",  c #0B0D0A",
"<  c #0D0E08",
"1  c #0F0E08",
"2  c #0B090E",
"3  c gray5",
"4  c #0D0D0F",
"5  c #150301",
"6  c #0B1008",
"7  c #0F1009",
"8  c #0F110E",
"9  c #0F180D",
"0  c #10130A",
"q  c #141108",
"w  c #11170B",
"e  c #12110D",
"r  c #10130D",
"t  c #12120E",
"y  c #17130E",
"u  c #10140C",
"i  c #12150C",
"p  c #13140D",
"a  c #13160D",
"s  c #12170D",
"d  c #11140E",
"f  c #1A170E",
"g  c #1C150F",
"h  c #101A0D",
"j  c #12180E",
"k  c #131A0F",
"l  c #15180F",
"z  c #17190F",
"x  c #101010",
"c  c #111111",
"v  c gray7",
"b  c #131313",
"n  c #131610",
"m  c gray8",
"M  c #151515",
"N  c #141A10",
"B  c #141912",
"V  c #161C10",
"C  c #191C15",
"Z  c #1B1D16",
"A  c #181818",
"S  c #191919",
"D  c gray10",
"F  c #1B1B1B",
"G  c #1F1F19",
"H  c #1A1B1E",
"J  c #1B1C1E",
"K  c gray11",
"L  c #1D1D1D",
"P  c #3A0C06",
"I  c #221513",
"U  c #1B2014",
"Y  c #2C2014",
"T  c #28231E",
"R  c #3C2511",
"E  c #30231B",
"W  c #30221F",
"Q  c #1B1F22",
"!  c #1C1D21",
"~  c #1E1F21",
"^  c #1F2022",
"/  c #222222",
"(  c gray15",
")  c #272727",
"_  c #272B2E",
"`  c #2A2A2A",
"'  c #2C2C2C",
"]  c #2D2D2D",
"[  c gray18",
"{  c #2F2F2F",
"}  c gray19",
"|  c #303135",
" . c gray21",
".. c #393939",
"X. c #3A3A3A",
"o. c #3E3E3E",
"O. c #4E1A14",
"+. c #473524",
"@. c #6A4B3A",
"#. c gray26",
"$. c #444444",
"%. c #464646",
"&. c gray28",
"*. c gray29",
"=. c #505050",
"-. c #515151",
";. c gray33",
":. c #555555",
">. c #565656",
",. c #585858",
"<. c #5B5C5F",
"1. c #5D5D5D",
"2. c gray37",
"3. c #626262",
"4. c gray40",
"5. c #6D6D6D",
"6. c gray43",
"7. c #727272",
"8. c #767676",
"9. c #70767C",
"0. c #797979",
"q. c gray48",
"w. c gray50",
"e. c #814F3D",
"r. c #855D3F",
"t. c #9F5C33",
"y. c #846247",
"u. c gray52",
"i. c #888888",
"p. c #8D8D8D",
"a. c gray56",
"s. c #939393",
"d. c #989898",
"f. c #9B9B9B",
"g. c #9F9F9F",
"h. c gray64",
"j. c #A5A5A5",
"k. c gray65",
"l. c #AAAAAA",
"z. c #B4B4B4",
"x. c #BCBAB7",
"c. c gray72",
"v. c #B9B9B9",
"b. c gray73",
"n. c gray76",
"m. c #C3C3C3",
"M. c #C8C8C8",
"N. c gray80",
"B. c #CDCDCD",
"V. c #D0D0D0",
"C. c #D2D2D2",
"Z. c gray83",
"A. c gainsboro",
"S. c gray88",
"D. c #E1E1E1",
"F. c #E3E2E1",
"G. c #E2E2E2",
"H. c gray89",
"J. c #E7E7E7",
"K. c #E9E9E9",
"L. c #EAEAEA",
"P. c gray92",
"I. c #EEEEEE",
"U. c #EFEFEF",
"Y. c #F1F1F1",
"T. c gray95",
"R. c #F3F3F3",
"E. c gray96",
"W. c #F6F6F6",
"Q. c gray97",
"!. c #F8F8F8",
"~. c gray98",
"^. c #FBFBFB",
"/. c gray99",
"(. c #FDFCFC",
"). c #FDFDFD",
"_. c #FEFEFE",
"`. c gray100",
/* pixels */
"`.`.`.`.`.`.`.`.`.`.`.`.`.=.        X.`.`.`.`.`.`.`.`.`.`.`.`.`.",
"`.`.`.`.`.`.`.`.`.`.    :.`.`.^.M.u.`.Z.    `.`.`.`.`.`.`.`.`.`.",
"`.`.`.`.`.`.`.`.    `.`.P.  `.`.c.u.M `.`.`.X.  `.`.`.`.`.`.`.`.",
"`.`.`.`.`.`.Q.  `.`.  $ P.`.`.  `.u.  `.  `.`.`.  A `.`.`.`.`.`.",
"`.`.`.`.`. .  `.`.`.N.`.  `.`.`.`.`.`.S.    `.$ w.j.  `.`.`.`.`.",
"`.`.`.`.3.' `.  :   `.P.    @ l.N.b     P.  `.  `.`.`.  `.`.`.`.",
"`.`.`.`.  `.=.c.        `.`.`.`.`.`.`.`.S.  $ `.S.`.Q.4.5.`.`.`.",
"`.`.`.  `.`.P.o.h.  `.`.`.`.`.`.`.`.`.`.`.`.  A   `.  `.  `.`.`.",
"`.`.  `.A   `.j.  `.`.`.`.`.`.`.`.`.`.`.`.`.`.:.&.    `.`.  `.`.",
"`.`.  `.`.`.    `.`.`.`.`.`.(.g.`.  `.`.`.`.`.`.  `.  4 U.  `.`.",
"`.7.`.`.b   b `.`.`.`.`.`.`.`.s.`.Y.p.`.`.`.`.`.`.  q.  `.`.  `.",
"`.  `.    `.  `.`.`.`.`.`.`.`.`.Y.y Y `.`.`.`.`.`.S.`.L V.`.  `.",
"`.  :.*.`.Y.Q.`.`.`.`.r.`.+.@.e.t.y.n `.`.`.`.`.`.`.    `.4   `.",
"`.} `./     `.`.`.`.`.4 `.q s h 1 e < E `.`.`.`.`.`.  ) q.  `.Z.",
"^.`.`.`.`.  `.`.`.`.`.`.R s N V 0 z N T `.`.`.`.`.`.  `.  :.`.  ",
"J.`.$ `.A.  `.`.`.`.`.`.9.z * 6 9 0 e W `.`.`.`.`.`.5.`.  `.L   ",
"P.`.`.  A.  `.`.`.`.`.`.`.C : I g 1 k <.`.`.`.`.`.`.2.`.`.b `.  ",
"`.Y.`.`.    `.`.`.`.`.`.`.Z 2 = + > s f S.`.`.`.`.`.  `.`.`.`.  ",
"`.:   b.`.  `.`.`.`.`.`.`.Z O ! Q ! s s x.`.`.`.`.`.  `.  `.`.U.",
"`.    `.  `.V.`.`.`.`.`.`.U 1 _ | 4 9 s O.`.`.`.`.`.  $ `.Y.  `.",
"`.  `.`.7.`.  `.`.`.`.`.`.  s ! J e H % 5 P `.`.`.' `.`.=.    `.",
"`.M.`.  ^.`.:.`.`.`.`.`.`.`.`.`.`.`.`.`.`.`.`.`.`.  p.  n.`.  `.",
"`.`.  n.`.  S.  `.`.`.`.`.`.Q.`.`.`.`.`.`.`.`.`.  `.P.Q.Y.  `.`.",
"`.`.L `.`.&.&.`.  `.`.`.`.`.`.A   2.#.`.`.`.`.  S.  `.  `.  `.`.",
"`.`.`.  `.`.P.d.Z.  `.`.`.`.`.`.`.`.`.`.`.`.  S.`.  : `.  `.`.`.",
"`.`.`.`.  A `.z.        `.`.`.`.`.`.`.`.A   `.`.` `.Q.  ^.`.`.`.",
"`.`.`.`.`.  Y.`.  `.                    `.  X.4 `.M s.: `.`.`.`.",
"`.`.`.`.`.P.  `.,.S.} ' `.  `.`.`.`.$ :     i.`.`.  : `.`.`.`.`.",
"`.`.`.`.`.`.`.  `.`.`.  *.J.`.`.*.    `.d.`.  `.  U.`.`.`.`.`.`.",
"`.`.`.`.`.`.`.`.    `.`.*.`.`.X.`.V.    `.`.    `.`.`.`.`.`.`.`.",
"`.`.`.`.`.`.`.`.`.`.b     Q.`.`.s.`.`.      `.`.`.`.`.`.`.`.`.`.",
"`.`.`.`.`.`.`.`.`.`.`.`.`.`.)       U.`.`.`.`.`.`.`.`.`.`.`.`.`."
};
